<svg width="512" height="512" viewBox="0 0 512 512" fill="none" xmlns="http://www.w3.org/2000/svg">
<path d="M252.845 443.477C157.011 479.271 48.1443 412.954 14.4109 319.756C-20.0892 236.908 8.75665 124.975 85.9506 79.5016C102.21 67.5025 121.543 60.3693 141.7 58.9321C161.856 57.4949 182.006 61.8129 199.804 71.3836C217.601 80.9543 232.313 95.3839 242.228 112.992C252.142 130.6 256.852 150.662 255.806 170.843C254.76 191.023 248.004 210.492 236.323 226.981C224.642 243.47 208.517 256.302 189.826 263.983C171.135 271.663 150.647 273.876 130.747 270.364C110.847 266.851 92.3542 257.759 77.4214 244.144C80.0842 260.065 84.2721 275.694 89.9277 290.815C116.665 363.217 179.963 415.398 252.845 443.477Z" fill="#40B2FC"/>
<path d="M426.566 432.092C410.35 444.218 391.018 451.48 370.828 453.03C350.639 454.581 330.425 450.354 312.548 440.846C294.671 431.337 279.868 416.938 269.869 399.331C259.869 381.723 255.085 361.634 256.077 341.41C257.068 321.185 263.793 301.66 275.466 285.115C287.139 268.57 303.279 255.687 322.001 247.972C340.722 240.257 361.252 238.027 381.193 241.544C401.134 245.061 419.663 254.179 434.616 267.833C431.901 251.938 427.715 236.329 422.109 221.21C395.42 148.807 332.122 96.626 259.192 68.4991C355.026 32.7532 463.797 99.0223 497.626 192.22C531.982 274.877 503.376 386.523 426.518 432.236" fill="#40B2FC"/>
</svg>
