<svg width="852" height="852" viewBox="0 0 852 852" fill="none" xmlns="http://www.w3.org/2000/svg">
<path d="M422.845 613.477C327.011 649.271 218.144 582.954 184.411 489.756C149.911 406.908 178.757 294.975 255.951 249.502C272.21 237.503 291.543 230.369 311.7 228.932C331.856 227.495 352.006 231.813 369.804 241.384C387.601 250.954 402.313 265.384 412.228 282.992C422.142 300.6 426.852 320.662 425.806 340.843C424.76 361.023 418.004 380.492 406.323 396.981C394.642 413.47 378.517 426.302 359.826 433.983C341.135 441.663 320.647 443.876 300.747 440.364C280.847 436.851 262.354 427.759 247.421 414.144C250.084 430.065 254.272 445.694 259.928 460.815C286.665 533.217 349.963 585.398 422.845 613.477Z" fill="#40B2FC"/>
<path d="M596.566 602.092C580.35 614.218 561.018 621.48 540.828 623.03C520.639 624.581 500.425 620.354 482.548 610.846C464.671 601.337 449.868 586.938 439.869 569.331C429.869 551.723 425.085 531.634 426.077 511.41C427.068 491.185 433.793 471.66 445.466 455.115C457.139 438.57 473.279 425.687 492.001 417.972C510.722 410.257 531.252 408.027 551.193 411.544C571.134 415.061 589.663 424.179 604.616 437.833C601.901 421.938 597.715 406.329 592.109 391.21C565.42 318.807 502.122 266.626 429.192 238.499C525.026 202.753 633.797 269.022 667.626 362.22C701.982 444.877 673.376 556.523 596.518 602.236" fill="#40B2FC"/>
</svg>
