<svg width="1798" height="474" viewBox="0 0 1798 474" fill="none" xmlns="http://www.w3.org/2000/svg">
<g clip-path="url(#clip0_19_2)">
<path d="M271.43 420.851C168.733 459.27 51.6921 388.119 15.4523 288.044C-21.5426 199.109 9.39551 78.919 92.2774 30.1316C111.27 16.0725 134.809 7.71753 160.294 7.71753C223.529 7.71753 274.869 58.988 274.869 122.22C274.869 185.453 223.529 236.79 160.294 236.79C130.547 236.79 103.418 225.499 83.0832 206.894C85.8515 223.486 90.3312 240.146 96.5389 256.973C125.246 334.701 193.179 390.82 271.43 420.867V420.851Z" fill="white"/>
<path d="M457.159 420.633C438.1 434.91 414.409 443.349 388.689 443.349C325.387 443.349 274.114 392.078 274.114 328.846C274.114 265.613 325.387 214.276 388.689 214.276C418.436 214.276 445.499 225.634 465.816 244.172C463.048 227.58 458.568 210.92 452.361 194.093C423.738 116.365 355.805 60.2463 277.537 30.1987C380.233 -8.22056 497.191 62.9306 533.514 163.005C570.358 251.722 539.638 371.593 457.125 420.633H457.159Z" fill="white"/>
<path d="M934.837 56.5048L887.826 176.527H872.323L825.312 56.5048V176.527H789.811V9.74731H839.573L880.075 113.765L920.576 9.74731H970.59V176.527H934.837V56.5048Z" fill="white"/>
<path d="M1013.36 197.281C1021.61 197.281 1027.11 195.032 1030.1 188.523L1034.6 178.272L985.59 55.75H1019.6L1051.11 139.752L1082.62 55.75H1116.88L1060.12 196.274C1051.12 219.024 1035.12 225.03 1014.36 225.533C1010.61 225.533 1002.62 224.778 998.609 223.788L1003.36 195.284C1006.11 196.542 1010.35 197.281 1013.36 197.281V197.281Z" fill="white"/>
<path d="M1195.9 9.74731H1231.4V145.272H1301.92V176.527H1195.9V9.74731Z" fill="white"/>
<path d="M1322.67 19.0083C1322.67 8.50593 1331.43 0 1341.68 0C1351.93 0 1360.69 8.50593 1360.69 19.0083C1360.69 29.5107 1352.18 38.0166 1341.68 38.0166C1331.18 38.0166 1322.67 29.5107 1322.67 19.0083ZM1325.93 55.7667H1357.69V176.527H1325.93V55.7499V55.7667Z" fill="white"/>
<path d="M1396.19 83.5157H1376.19V55.7666H1396.19V49.2571C1396.19 23.0011 1413.19 7.24756 1436.94 7.24756C1445.94 7.24756 1454.19 9.24402 1459.95 12.2471L1453.44 34.745C1450.68 33.0002 1446.93 32.2453 1443.19 32.2453C1434.19 32.2453 1428.19 38.2514 1428.19 49.7436V55.7498H1452.68V83.4989H1428.19V176.51H1396.17V83.5157H1396.19Z" fill="white"/>
<path d="M1525.7 52.7636C1561.7 52.7636 1586.21 79.7745 1586.21 119.268V126.264H1496.45C1498.45 141.514 1510.72 154.264 1531.22 154.264C1542.48 154.264 1555.71 149.768 1563.46 142.269L1577.47 162.77C1565.48 173.776 1546.47 179.514 1527.71 179.514C1490.95 179.514 1463.2 154.768 1463.2 116.013C1463.2 81.016 1488.95 52.7468 1525.71 52.7468L1525.7 52.7636ZM1495.93 104.772H1555.44C1554.69 93.2632 1546.69 78.013 1525.7 78.013C1505.95 78.013 1497.44 92.7599 1495.93 104.772Z" fill="white"/>
<path d="M934.837 304.972L887.826 424.994H872.323L825.312 304.972V424.994H789.811V258.231H839.573L880.075 362.248L920.576 258.231H970.59V424.994H934.837V304.972V304.972Z" fill="white"/>
<path d="M1013.36 445.747C1021.61 445.747 1027.11 443.499 1030.1 436.99L1034.6 426.739L985.59 304.234H1019.6L1051.11 388.236L1082.62 304.234H1116.88L1060.12 444.758C1051.12 467.507 1035.12 473.513 1014.36 474.017C1010.61 474.017 1002.62 473.262 998.609 472.272L1003.36 443.768C1006.11 445.009 1010.35 445.764 1013.36 445.764V445.747Z" fill="white"/>
<path d="M1178.15 258.231H1218.65L1264.9 386.491L1310.91 258.231H1351.41L1287.15 424.994H1242.64L1178.13 258.231H1178.15Z" fill="white"/>
<path d="M1343.42 364.48C1343.42 330.221 1367.43 301.214 1407.18 301.214C1446.93 301.214 1471.19 330.221 1471.19 364.48C1471.19 398.738 1447.18 427.981 1407.18 427.981C1367.18 427.981 1343.42 398.973 1343.42 364.48ZM1438.19 364.48C1438.19 345.723 1426.93 329.483 1407.18 329.483C1387.43 329.483 1376.43 345.74 1376.43 364.48C1376.43 383.22 1387.43 399.728 1407.18 399.728C1426.93 399.728 1438.19 383.471 1438.19 364.48Z" fill="white"/>
<path d="M1491.45 267.475C1491.45 256.973 1500.21 248.467 1510.46 248.467C1520.71 248.467 1529.47 256.973 1529.47 267.475C1529.47 277.978 1520.97 286.484 1510.46 286.484C1499.96 286.484 1491.45 277.978 1491.45 267.475ZM1494.71 304.234H1526.47V424.994H1494.71V304.234V304.234Z" fill="white"/>
<path d="M1614.22 301.231C1638.96 301.231 1653.98 311.985 1661.98 322.99L1641.23 342.485C1635.47 333.979 1626.73 329.483 1615.73 329.483C1596.48 329.483 1582.98 343.492 1582.98 364.48C1582.98 385.468 1596.48 399.728 1615.73 399.728C1626.73 399.728 1635.47 394.729 1641.23 386.726L1661.98 405.969C1653.98 417.227 1638.98 427.981 1614.22 427.981C1576.95 427.981 1550.21 401.725 1550.21 364.48C1550.21 327.235 1576.97 301.214 1614.22 301.214V301.231Z" fill="white"/>
<path d="M1737.5 301.231C1773.5 301.231 1798.02 328.242 1798.02 367.735V374.731H1708.26C1710.25 389.981 1722.52 402.731 1743.02 402.731C1754.28 402.731 1767.51 398.235 1775.27 390.736L1789.28 411.237C1777.28 422.243 1758.27 427.981 1739.51 427.981C1702.75 427.981 1675 403.235 1675 364.48C1675 329.483 1700.76 301.214 1737.52 301.214L1737.5 301.231ZM1707.74 353.239H1767.25C1766.49 341.73 1758.49 326.48 1737.5 326.48C1717.75 326.48 1709.25 341.227 1707.74 353.239Z" fill="white"/>
<path d="M659.146 14.1431V424.995" stroke="white" stroke-width="2.6" stroke-miterlimit="10"/>
</g>
<defs>
<clipPath id="clip0_19_2">
<rect width="1798" height="474" fill="white"/>
</clipPath>
</defs>
</svg>
