<svg width="107" height="85" viewBox="0 0 107 85" fill="none" xmlns="http://www.w3.org/2000/svg">
<title>Identity logo for My Life My Voice</title>
<path d="M52.9999 80.3199C32.9999 87.7899 10.2799 73.9499 3.2399 54.4999C-3.9601 37.2099 2.05989 13.8499 18.1699 4.35988C21.5631 1.85574 25.5979 0.36706 29.8045 0.0671234C34.011 -0.232813 38.2162 0.668336 41.9305 2.6657C45.6447 4.66305 48.7151 7.67444 50.7842 11.3492C52.8533 15.0239 53.8361 19.2108 53.6179 23.4223C53.3997 27.6339 51.9896 31.6969 49.5518 35.1381C47.1141 38.5794 43.7489 41.2573 39.8482 42.8602C35.9474 44.4631 31.6717 44.9249 27.5186 44.1919C23.3656 43.4589 19.5063 41.5613 16.3899 38.7199C16.9456 42.0427 17.8196 45.3044 18.9999 48.4599C24.5799 63.5699 37.7899 74.4599 52.9999 80.3199Z" fill="#ffffff"/>
<path d="M89.1201 80.2799C85.7359 82.8106 81.7014 84.3262 77.488 84.6497C73.2746 84.9732 69.0561 84.0912 65.3252 82.1068C61.5943 80.1224 58.505 77.1174 56.4182 73.4428C54.3313 69.7682 53.333 65.5757 53.5399 61.355C53.7467 57.1342 55.1502 53.0594 57.5863 49.6065C60.0225 46.1536 63.3908 43.4651 67.2979 41.855C71.2049 40.2448 75.4895 39.7796 79.6511 40.5135C83.8127 41.2475 87.6795 43.1503 90.8001 45.9999C90.2336 42.6826 89.3599 39.4252 88.1901 36.2698C82.6201 21.1598 69.4101 10.2698 54.1901 4.39985C74.1901 -3.06015 96.8901 10.7699 103.95 30.2199C111.12 47.4699 105.15 70.7699 89.1101 80.3099" fill="#ffffff"/>
</svg>
